<?xml version="1.0" encoding="utf-8"?>
<!-- Generator: Adobe Illustrator 21.0.0, SVG Export Plug-In . SVG Version: 6.00 Build 0)  -->
<svg version="1.1" id="Layer_1" xmlns="http://www.w3.org/2000/svg" xmlns:xlink="http://www.w3.org/1999/xlink" x="0px" y="0px"
	 viewBox="0 0 135.6 31.4" style="enable-background:new 0 0 135.6 31.4;" xml:space="preserve">
<style type="text/css">
	.st0{fill:#E51555;}
	.st1{fill:#727272;}
	.st2{fill:url(#SVGID_1_);}
	.st3{fill:url(#SVGID_2_);}
	.st4{fill:url(#SVGID_3_);}
	.st5{fill:url(#SVGID_4_);}
	.st6{fill:url(#SVGID_5_);}
	.st7{fill:url(#SVGID_6_);}
	.st8{fill:url(#SVGID_7_);}
	.st9{fill:url(#SVGID_8_);}
	.st10{fill:url(#SVGID_9_);}
	.st11{fill:url(#SVGID_10_);}
	.st12{fill:url(#SVGID_11_);}
	.st13{fill:url(#SVGID_12_);}
</style>
<path class="st0" d="M110.6,16.4c0,1.3-0.2,2.6-0.6,3.7c-0.3,1.1-0.9,2.1-1.7,2.9c-0.7,0.8-1.7,1.3-2.5,1.8c-1,0.4-2.2,0.6-3.5,0.6
	c-1.3,0-2.5-0.2-3.4-0.6c-1-0.3-1.9-0.9-2.4-1.7c-0.7-0.7-1.1-1.7-1.5-2.8c-0.3-1.1-0.4-2.4-0.4-3.9c0-1.3,0.2-2.6,0.6-3.6
	c0.3-1.1,0.9-2.1,1.7-2.8c0.7-0.8,1.7-1.3,2.5-1.8c1-0.4,2.2-0.6,3.5-0.6c1.2,0,2.4,0.1,3.4,0.4c1,0.3,1.9,0.9,2.5,1.7
	c0.7,0.7,1.1,1.7,1.5,2.6C110.4,13.6,110.6,15,110.6,16.4z M107,16.5c0-0.9-0.1-1.8-0.2-2.4c-0.1-0.7-0.3-1.3-0.7-1.9
	c-0.3-0.6-0.8-0.9-1.3-1.2c-0.6-0.2-1.2-0.4-2.1-0.4c-0.8,0-1.7,0.1-2.2,0.4c-0.6,0.3-1,0.8-1.3,1.2c-0.3,0.6-0.6,1.1-0.7,1.9
	c-0.1,0.7-0.2,1.5-0.2,2.3c0,0.9,0.1,1.8,0.2,2.5c0.1,0.7,0.3,1.3,0.7,2c0.3,0.6,0.8,0.9,1.3,1.1s1.2,0.4,2.1,0.4
	c0.8,0,1.7-0.1,2.2-0.4c0.6-0.3,1-0.7,1.3-1.2c0.3-0.6,0.6-1.1,0.7-2C106.9,18.2,107,17.3,107,16.5z"/>
<path class="st0" d="M112.9,18.8c0-0.8,0.1-1.7,0.3-2.3c0.2-0.7,0.6-1.2,1.1-1.8c0.4-0.4,1.1-0.8,1.9-1c0.7-0.2,1.5-0.3,2.5-0.3
	c0.9,0,1.8,0.1,2.4,0.3c0.7,0.2,1.2,0.6,1.8,1c0.4,0.4,0.8,1,1.1,1.8c0.2,0.7,0.3,1.5,0.3,2.3v5.5c0,0.1,0,0.1-0.1,0.2
	c0,0.1-0.1,0.1-0.2,0.1s-0.2,0.1-0.4,0.1c-0.2,0-0.4,0-0.7,0c-0.2,0-0.4,0-0.7,0c-0.2,0-0.3,0-0.4-0.1c-0.1,0-0.2-0.1-0.2-0.1
	c0-0.1-0.1-0.1-0.1-0.2V19c0-0.6-0.1-1-0.2-1.5c-0.1-0.4-0.3-0.7-0.6-1c-0.2-0.2-0.6-0.4-0.9-0.6s-0.8-0.2-1.1-0.2
	c-0.4,0-0.8,0.1-1.1,0.2c-0.3,0.1-0.7,0.3-0.9,0.6c-0.2,0.2-0.4,0.6-0.6,0.9c-0.1,0.3-0.2,0.8-0.2,1.2V24c0,0.1,0,0.1-0.1,0.2
	c0,0.1-0.1,0.1-0.2,0.1c-0.1,0-0.2,0.1-0.4,0.1s-0.4,0-0.7,0s-0.4,0-0.7,0c-0.2,0-0.3,0-0.4-0.1c-0.1,0-0.2-0.1-0.2-0.1
	c0-0.1-0.1-0.1-0.1-0.2L112.9,18.8z"/>
<path class="st0" d="M131.1,23.1c0,0.3,0,0.7-0.1,0.9c-0.1,0.2-0.1,0.4-0.3,0.6c-0.1,0.1-0.3,0.2-0.6,0.3c-0.2,0.1-0.6,0.1-0.9,0.1
	s-0.7,0-0.9-0.1c-0.2-0.1-0.4-0.2-0.6-0.3c-0.1-0.1-0.2-0.3-0.3-0.6c-0.1-0.2-0.1-0.6-0.1-0.9c0-0.3,0-0.7,0.1-0.9
	c0-0.2,0.1-0.4,0.3-0.6c0.1-0.1,0.3-0.2,0.6-0.3c0.2-0.1,0.6-0.1,0.9-0.1s0.7,0,0.9,0.1c0.2,0.1,0.4,0.2,0.6,0.3
	c0.1,0.1,0.2,0.3,0.3,0.6C131.1,22.3,131.1,22.7,131.1,23.1z M130.6,19.3c0,0.1,0,0.1-0.1,0.2c0,0.1-0.1,0.1-0.2,0.2
	c-0.1,0-0.2,0.1-0.4,0.1c-0.2,0-0.4,0-0.7,0c-0.2,0-0.4,0-0.7,0c-0.2,0-0.3-0.1-0.4-0.1c-0.1,0-0.2-0.1-0.2-0.2
	c0-0.1-0.1-0.1-0.1-0.2l-0.3-11.9c0-0.1,0-0.2,0.1-0.3c0-0.1,0.1-0.1,0.2-0.2c0.1,0,0.3-0.1,0.6-0.1c0.2,0,0.6,0,0.9,0s0.7,0,0.9,0
	c0.2,0,0.4,0.1,0.6,0.1s0.2,0.1,0.3,0.2c0,0.1,0.1,0.2,0.1,0.3L130.6,19.3z"/>
<g>
	<path class="st1" d="M71.9,24.7v-2.9c0-0.3-0.2-0.4-0.4-0.4h-6.8v-0.9h3.8v-1.6h-5.4v-0.9h11.8v0.9h-5.5v1.6h2.9
		c0.3,0,0.4,0.2,0.4,0.4v3.9L71.9,24.7L71.9,24.7z M73.7,17c-0.9-0.1-1.9-0.4-2.8-0.8c-0.7-0.4-1.2-0.6-1.6-1
		c-0.2-0.2-0.4-0.2-0.6,0c-0.4,0.4-0.9,0.6-1.6,1c-0.9,0.4-1.9,0.7-2.8,0.8l-0.5-0.9c0.9,0,1.9-0.2,2.8-0.6c1-0.4,1.6-0.9,1.9-1.5
		h-4v-0.9h4.1v-1.2h1v1.2h4.1V14h-4c0.3,0.5,0.9,1.1,1.9,1.5c0.9,0.4,1.9,0.5,2.8,0.5L73.7,17z"/>
	<path class="st1" d="M82.3,21.8c-1.1-1.1-1.9-2.5-2.4-4c-0.2,0.6-0.4,1.4-0.9,2.1c-0.4,0.8-1,1.5-1.6,2l-0.7-0.6
		c0.7-0.5,1.4-1.4,2-2.5c0.5-1.1,0.8-2.3,0.8-3.3v-1.5h-2.4v-0.9H83v0.9h-2.4v1.5c0,1.1,0.3,2.1,0.7,3.1c0.5,1,1.1,1.9,1.9,2.5
		L82.3,21.8z M84.1,24.3v-6.6c0-0.3-0.2-0.4-0.4-0.4h-1.8v-0.9h1.8c0.3,0,0.4-0.2,0.4-0.4v-3.7h1v12L84.1,24.3L84.1,24.3z
		 M86.5,24.7V12h1v12.7L86.5,24.7L86.5,24.7z"/>
	<g>
		<path class="st1" d="M42.1,19c-0.6-0.4-1.2-0.9-1.8-1.5c-0.4-0.4-0.7-0.8-0.9-1.1c-0.1-0.2-0.4-0.2-0.4,0c-0.3,0.4-0.6,1-1.1,1.4
			c-0.6,0.7-1.1,1.2-1.8,1.5l-0.6-0.6c0.9-0.4,1.7-1.1,2.3-2c0.6-0.9,0.9-1.8,0.9-2.7v-0.4H36v-0.9h6.5v0.9h-2.7V14
			c0,0.8,0.4,1.7,1,2.5s1.3,1.4,2.1,1.9L42.1,19z M38.2,24.1c-0.2,0-0.3-0.1-0.3-0.3V20h1v2.9c0,0.2,0.1,0.3,0.3,0.3h6.7v0.9
			C45.9,24.1,38.2,24.1,38.2,24.1z M44.7,20.9v-4.6c0-0.2-0.1-0.3-0.3-0.3h-2.7v-0.9h2.7c0.2,0,0.3-0.1,0.3-0.3V12h1v8.8H44.7z"/>
		<path class="st1" d="M57.3,24.4v-3c0-0.2-0.1-0.3-0.3-0.3h-6.8v-0.9h3.4c0.2,0,0.3-0.1,0.3-0.3v-1c0-0.2-0.1-0.3-0.3-0.3h-5v-0.9
			h11.6v0.9h-5C55,18.7,55,18.8,55,19v1c0,0.2,0.1,0.3,0.3,0.3h2.8c0.2,0,0.3,0.1,0.3,0.3v3.8L57.3,24.4L57.3,24.4z M50.9,16.7
			c-0.2,0-0.3-0.1-0.3-0.3v-4.2h1v1.2c0,0.2,0.1,0.3,0.3,0.3h5.2c0.2,0,0.3-0.1,0.3-0.3v-1.2h1v4.2c0,0.2-0.1,0.3-0.3,0.3H50.9z
			 M57.1,14.5h-5.2c-0.2,0-0.3,0.1-0.3,0.3v0.8c0,0.2,0.1,0.3,0.3,0.3h5.2c0.2,0,0.3-0.1,0.3-0.3v-0.8
			C57.3,14.7,57.2,14.5,57.1,14.5z"/>
	</g>
</g>
<linearGradient id="SVGID_1_" gradientUnits="userSpaceOnUse" x1="15.7246" y1="7.8985" x2="13.6445" y2="5.6006" gradientTransform="matrix(0.985 0.1725 0.1725 -0.985 -2.5311 28.4336)">
	<stop  offset="0" style="stop-color:#D4004D"/>
	<stop  offset="0.7227" style="stop-color:#F31E38"/>
	<stop  offset="1" style="stop-color:#FF2A30"/>
</linearGradient>
<path class="st2" d="M11,29c0,0.1,4.1-1,4.1-1s-2.9-6-1.6-9.1C13.5,18.8,9.4,23.2,11,29z"/>
<linearGradient id="SVGID_2_" gradientUnits="userSpaceOnUse" x1="13.3672" y1="19.7756" x2="16.3665" y2="21.7107" gradientTransform="matrix(0.985 0.1725 0.1725 -0.985 -2.5311 28.4336)">
	<stop  offset="0" style="stop-color:#D4004D"/>
	<stop  offset="0.7227" style="stop-color:#F31E38"/>
	<stop  offset="1" style="stop-color:#FF2A30"/>
</linearGradient>
<path class="st3" d="M17.3,5.7c0-0.1-4.1,1-4.1,1s2.9,6,1.6,9.1C14.9,15.8,18.9,11.4,17.3,5.7z"/>
<linearGradient id="SVGID_3_" gradientUnits="userSpaceOnUse" x1="17.831" y1="5.1555" x2="15.7508" y2="2.8577" gradientTransform="matrix(0.7921 0.6104 0.6104 -0.7921 -5.6306 15.8321)">
	<stop  offset="0" style="stop-color:#D4004D"/>
	<stop  offset="0.7227" style="stop-color:#F31E38"/>
	<stop  offset="1" style="stop-color:#FF2A30"/>
</linearGradient>
<path class="st4" d="M6.1,26.1c0,0.1,4.1,1,4.1,1s0.2-6.6,2.8-8.8C13,18.2,7.4,20.2,6.1,26.1z"/>
<linearGradient id="SVGID_4_" gradientUnits="userSpaceOnUse" x1="15.3702" y1="16.6899" x2="18.3695" y2="18.6249" gradientTransform="matrix(0.7921 0.6104 0.6104 -0.7921 -5.6306 15.8321)">
	<stop  offset="0" style="stop-color:#D4004D"/>
	<stop  offset="0.7227" style="stop-color:#F31E38"/>
	<stop  offset="1" style="stop-color:#FF2A30"/>
</linearGradient>
<path class="st5" d="M22.2,8.6c0-0.1-4.1-1-4.1-1s-0.2,6.6-2.8,8.8C15.4,16.4,21,14.4,22.2,8.6z"/>
<linearGradient id="SVGID_5_" gradientUnits="userSpaceOnUse" x1="20.9707" y1="3.7055" x2="18.8905" y2="1.4077" gradientTransform="matrix(0.4177 0.9086 0.9086 -0.4177 -2.5194 3.2335)">
	<stop  offset="0" style="stop-color:#D4004D"/>
	<stop  offset="0.7227" style="stop-color:#F31E38"/>
	<stop  offset="1" style="stop-color:#FF2A30"/>
</linearGradient>
<path class="st6" d="M3.1,21.2C3,21.3,6.3,24,6.3,24s3.3-5.8,6.6-6.5C12.9,17.5,7,16.6,3.1,21.2z"/>
<linearGradient id="SVGID_6_" gradientUnits="userSpaceOnUse" x1="18.5778" y1="14.8884" x2="21.5771" y2="16.8234" gradientTransform="matrix(0.4177 0.9086 0.9086 -0.4177 -2.5194 3.2335)">
	<stop  offset="0" style="stop-color:#D4004D"/>
	<stop  offset="0.7227" style="stop-color:#F31E38"/>
	<stop  offset="1" style="stop-color:#FF2A30"/>
</linearGradient>
<path class="st7" d="M25.2,13.4c0.1-0.1-3.2-2.8-3.2-2.8s-3.3,5.8-6.6,6.5C15.5,17.2,21.4,18,25.2,13.4z"/>
<linearGradient id="SVGID_7_" gradientUnits="userSpaceOnUse" x1="24.4246" y1="3.8806" x2="22.3445" y2="1.5827" gradientTransform="matrix(-5.236517e-02 0.9986 0.9986 5.236517e-02 6.0899 -6.4764)">
	<stop  offset="0" style="stop-color:#D4004D"/>
	<stop  offset="0.7227" style="stop-color:#F31E38"/>
	<stop  offset="1" style="stop-color:#FF2A30"/>
</linearGradient>
<path class="st8" d="M2.7,15.5c-0.1,0,1.5,3.9,1.5,3.9s5.6-3.6,8.9-2.7C13.1,16.7,8.3,13.2,2.7,15.5z"/>
<linearGradient id="SVGID_8_" gradientUnits="userSpaceOnUse" x1="22.2551" y1="14.7837" x2="25.2544" y2="16.7187" gradientTransform="matrix(-5.236517e-02 0.9986 0.9986 5.236517e-02 6.0899 -6.4764)">
	<stop  offset="0" style="stop-color:#D4004D"/>
	<stop  offset="0.7227" style="stop-color:#F31E38"/>
	<stop  offset="1" style="stop-color:#FF2A30"/>
</linearGradient>
<path class="st9" d="M25.6,19.1c0.1,0-1.5-3.9-1.5-3.9s-5.6,3.6-8.9,2.7C15.3,17.9,20.1,21.4,25.6,19.1z"/>
<linearGradient id="SVGID_9_" gradientUnits="userSpaceOnUse" x1="27.4016" y1="5.6406" x2="25.3215" y2="3.3427" gradientTransform="matrix(-0.5104 0.8599 0.8599 0.5104 18.2254 -11.0737)">
	<stop  offset="0" style="stop-color:#D4004D"/>
	<stop  offset="0.7227" style="stop-color:#F31E38"/>
	<stop  offset="1" style="stop-color:#FF2A30"/>
</linearGradient>
<path class="st10" d="M5,10.3c-0.1,0-0.5,4.2-0.5,4.2s6.6-0.6,9.1,1.7C13.6,16.2,11,10.8,5,10.3z"/>
<linearGradient id="SVGID_10_" gradientUnits="userSpaceOnUse" x1="25.56" y1="16.3998" x2="28.5593" y2="18.3348" gradientTransform="matrix(-0.5104 0.8599 0.8599 0.5104 18.2254 -11.0737)">
	<stop  offset="0" style="stop-color:#D4004D"/>
	<stop  offset="0.7227" style="stop-color:#F31E38"/>
	<stop  offset="1" style="stop-color:#FF2A30"/>
</linearGradient>
<path class="st11" d="M23.3,24.3c0.1,0,0.5-4.2,0.5-4.2s-6.6,0.6-9.1-1.7C14.7,18.4,17.4,23.8,23.3,24.3z"/>
<linearGradient id="SVGID_11_" gradientUnits="userSpaceOnUse" x1="29.2199" y1="8.5824" x2="27.1397" y2="6.2845" gradientTransform="matrix(-0.8516 0.5243 0.5243 0.8516 31.1073 -9.5053)">
	<stop  offset="0" style="stop-color:#D4004D"/>
	<stop  offset="0.7227" style="stop-color:#F31E38"/>
	<stop  offset="1" style="stop-color:#FF2A30"/>
</linearGradient>
<path class="st12" d="M9.5,6.7c-0.1-0.1-2.4,3.5-2.4,3.5s6.1,2.6,7.3,5.8C14.4,16,14.5,10,9.5,6.7z"/>
<linearGradient id="SVGID_12_" gradientUnits="userSpaceOnUse" x1="27.7354" y1="19.3665" x2="30.7347" y2="21.3016" gradientTransform="matrix(-0.8516 0.5243 0.5243 0.8516 31.1073 -9.5053)">
	<stop  offset="0" style="stop-color:#D4004D"/>
	<stop  offset="0.7227" style="stop-color:#F31E38"/>
	<stop  offset="1" style="stop-color:#FF2A30"/>
</linearGradient>
<path class="st13" d="M18.9,27.9c0.1,0.1,2.4-3.5,2.4-3.5s-6.1-2.6-7.3-5.8C14,18.7,13.9,24.6,18.9,27.9z"/>
</svg>
